# Blender v3.1.2 OBJ File: ''
# www.blender.org
mtllib emerald.mtl
o emerald
v 0.135580 2.024018 0.592998
v -0.019111 1.946303 0.441973
v -0.019111 0.831759 0.441973
v 0.135580 0.754044 0.592998
v -0.019110 1.946303 -0.441973
v 0.135580 2.024018 -0.592998
v 0.135580 0.754044 -0.592998
v -0.019111 0.831759 -0.441973
v 0.135580 0.433370 0.351540
v -0.019111 0.550331 0.262009
v -0.019111 0.550331 -0.262009
v 0.135580 0.433370 -0.351540
v 0.135580 2.344692 -0.351540
v -0.019110 2.227731 -0.262009
v -0.019111 2.227731 0.262009
v 0.135580 2.344692 0.351540
v 1.023115 2.234238 0.317028
v 1.023115 1.950627 0.534782
v 1.023115 0.827435 0.534782
v 1.023115 0.543823 0.317029
v 1.023115 0.543823 -0.317028
v 1.023116 0.827435 -0.534782
v 1.023116 1.950627 -0.534782
v 1.023115 2.234238 -0.317028
v -0.057284 1.914578 -0.010713
v -0.057284 1.769061 -0.018071
v -0.057284 1.009001 -0.018071
v -0.057284 0.863484 -0.010713
v -0.057284 0.863484 0.010713
v -0.057284 1.009001 0.018071
v -0.057284 1.769061 0.018071
v -0.057284 1.914578 0.010713
v 0.325864 2.096634 0.782077
v 0.325864 2.453980 0.463629
v 0.325864 0.681428 0.782077
v 0.325864 0.324081 0.463629
v 0.325864 0.324081 -0.463629
v 0.325864 0.681428 -0.782077
v 0.325865 2.096634 -0.782077
v 0.325865 2.453980 -0.463629
v 0.630319 2.194505 0.931630
v 0.630319 2.601277 0.552286
v 0.630319 0.583556 0.931630
v 0.630319 0.176784 0.552287
v 0.630319 0.176784 -0.552286
v 0.630319 0.583556 -0.931629
v 0.630320 2.194505 -0.931629
v 0.630320 2.601277 -0.552286
v 0.684691 2.194505 0.931630
v 0.684691 2.601277 0.552286
v 0.684691 0.583556 0.931630
v 0.684691 0.176784 0.552287
v 0.684691 0.176784 -0.552286
v 0.684691 0.583556 -0.931629
v 0.684692 2.194505 -0.931629
v 0.684692 2.601277 -0.552286
v 0.804288 2.147233 0.835085
v 0.804288 2.530132 0.495053
v 0.804288 0.630829 0.835085
v 0.804288 0.247929 0.495054
v 0.804288 0.247929 -0.495053
v 0.804288 0.630829 -0.835085
v 0.804289 2.147233 -0.835085
v 0.804289 2.530132 -0.495053
v 0.947002 2.038790 0.686617
v 0.947002 2.366925 0.407039
v 0.947002 0.739271 0.686617
v 0.947002 0.411136 0.407039
v 0.947002 0.411136 -0.407039
v 0.947002 0.739271 -0.686617
v 0.947002 2.038790 -0.686617
v 0.947002 2.366925 -0.407039
vt 0.390798 0.000000
vt 0.609202 0.250000
vt 0.390798 0.250000
vt 0.390798 0.500000
vt 0.609202 0.750000
vt 0.390798 0.750000
vt 0.664496 0.000000
vt 0.835504 0.250000
vt 0.664496 0.250000
vt 0.164496 0.000000
vt 0.335504 0.250000
vt 0.164496 0.250000
vt 0.390798 0.500000
vt 0.375000 0.460504
vt 0.390798 0.250000
vt 0.390798 1.000000
vt 0.375000 0.960504
vt 0.390798 0.750000
vt 0.335504 0.000000
vt 0.609202 0.000000
vt 0.375000 0.789496
vt 0.375000 0.460504
vt 0.609202 0.500000
vt 0.625000 0.789496
vt 0.390798 0.250000
vt 0.609202 0.500000
vt 0.609202 0.250000
vt 0.390798 0.250000
vt 0.390798 0.500000
vt 0.609202 0.500000
vt 0.609202 0.500000
vt 0.375000 0.789496
vt 0.625000 0.789496
vt 0.609202 0.750000
vt 0.625000 0.960504
vt 0.609202 1.000000
vt 0.625000 0.960504
vt 0.390798 1.000000
vt 0.609202 1.000000
vt 0.375000 0.960504
vt 0.835504 0.000000
vt 0.375000 0.289496
vt 0.609202 0.250000
vt 0.625000 0.289496
vt 0.625000 0.460504
vt 0.625000 0.460504
vt 0.609202 0.250000
vt 0.390798 0.500000
vt 0.375000 0.289496
vt 0.375000 0.289496
vt 0.625000 0.289496
vt 0.625000 0.289496
vt 0.625000 0.460504
vt 0.375000 0.460504
vt 0.390798 0.250000
vt 0.375000 0.289496
vt 0.609202 0.250000
vt 0.625000 0.289496
vt 0.609202 0.500000
vt 0.625000 0.460504
vt 0.390798 0.500000
vt 0.375000 0.460504
vt 0.375000 0.289496
vt 0.390798 0.250000
vt 0.609202 0.250000
vt 0.625000 0.289496
vt 0.625000 0.460504
vt 0.609202 0.500000
vt 0.390798 0.500000
vt 0.375000 0.460504
vt 0.390798 0.250000
vt 0.375000 0.289496
vt 0.609202 0.250000
vt 0.625000 0.289496
vt 0.609202 0.500000
vt 0.625000 0.460504
vt 0.390798 0.500000
vt 0.375000 0.460504
vt 0.375000 0.289496
vt 0.625000 0.289496
vt 0.625000 0.460504
vt 0.375000 0.460504
vn -0.6986 0.0000 0.7155
vn -0.6986 0.0000 -0.7155
vn -0.6031 -0.7977 -0.0000
vn -0.6031 0.7977 -0.0000
vn 1.0000 0.0000 0.0000
vn -1.0000 0.0000 -0.0000
vn -0.7063 0.4059 0.5799
vn -0.7063 -0.4059 0.5799
vn -0.7063 0.4059 -0.5799
vn -0.7063 -0.4059 -0.5799
vn -0.7049 0.0000 0.7094
vn -0.7049 0.0000 -0.7094
vn 0.8940 0.0000 0.4481
vn 0.8940 0.0000 -0.4481
vn -0.9956 0.0375 -0.0854
vn -0.9960 0.0000 -0.0897
vn -0.9956 -0.0375 -0.0854
vn -0.9927 -0.1210 -0.0000
vn -0.9956 -0.0375 0.0854
vn -0.9960 0.0000 0.0897
vn -0.9956 0.0375 0.0854
vn -0.9927 0.1210 -0.0000
vn -0.6749 0.4699 0.5690
vn -0.6104 0.7512 0.2513
vn -0.5993 0.7694 0.2212
vn -0.6749 -0.4699 0.5690
vn -0.6104 -0.7512 0.2514
vn -0.5993 -0.7694 -0.2212
vn -0.5993 -0.7693 0.2212
vn -0.6749 -0.4699 -0.5690
vn -0.6104 -0.7512 -0.2513
vn -0.6749 0.4699 -0.5690
vn -0.6104 0.7512 -0.2514
vn -0.5993 0.7693 -0.2212
vn -0.4818 0.8459 0.2289
vn -0.4888 0.5883 0.6442
vn -0.4839 0.8405 0.2437
vn -0.4409 0.0000 0.8976
vn -0.3805 0.0000 0.9248
vn -0.4818 -0.8459 0.2289
vn -0.4888 -0.5883 0.6442
vn -0.4889 -0.5883 0.6442
vn -0.4818 -0.8459 -0.2289
vn -0.4839 -0.8405 0.2436
vn -0.4888 -0.5883 -0.6442
vn -0.4839 -0.8405 -0.2437
vn -0.4409 0.0000 -0.8976
vn -0.3805 -0.0000 -0.9248
vn -0.4818 0.8459 -0.2289
vn -0.4888 0.5883 -0.6442
vn -0.4889 0.5883 -0.6442
vn -0.4839 0.8405 -0.2436
vn 0.0000 0.6820 0.7313
vn 0.4384 0.8631 0.2506
vn 0.0000 0.9644 0.2644
vn 0.4790 -0.0001 0.8778
vn -0.0000 -0.9644 0.2644
vn 0.4728 -0.5960 0.6490
vn -0.0000 -0.6820 0.7313
vn 0.0000 -0.9644 -0.2644
vn 0.4384 -0.8631 0.2506
vn -0.0000 -0.6820 -0.7313
vn 0.4384 -0.8631 -0.2506
vn 0.4790 0.0001 -0.8778
vn -0.0000 0.9644 -0.2644
vn 0.4728 0.5960 -0.6490
vn 0.0000 0.6820 -0.7313
vn 0.4384 0.8631 -0.2506
vn 0.6288 0.5237 0.5748
vn 0.5822 0.7860 0.2077
vn 0.4790 0.0000 0.8778
vn 0.6786 0.0000 0.7345
vn 0.6288 -0.5237 0.5748
vn 0.5822 -0.7860 0.2077
vn 0.6288 -0.5237 -0.5748
vn 0.5822 -0.7860 -0.2077
vn 0.4790 -0.0000 -0.8778
vn 0.6786 -0.0000 -0.7345
vn 0.6288 0.5237 -0.5748
vn 0.5822 0.7860 -0.2077
vn 0.7808 0.4104 0.4710
vn 0.7875 0.5943 0.1630
vn 0.7902 0.5846 0.1838
vn 0.6787 -0.0000 0.7345
vn 0.7209 -0.0000 0.6930
vn 0.7809 -0.4104 0.4710
vn 0.7875 -0.5943 0.1630
vn 0.7902 -0.5846 -0.1838
vn 0.7902 -0.5846 0.1839
vn 0.7809 -0.4104 -0.4710
vn 0.7875 -0.5943 -0.1630
vn 0.6787 0.0000 -0.7345
vn 0.7209 -0.0000 -0.6930
vn 0.7808 0.4104 -0.4710
vn 0.7875 0.5943 -0.1630
vn 0.7809 0.4104 -0.4710
vn 0.7902 0.5846 -0.1839
vn 0.9066 0.2662 0.3275
vn 0.8979 0.4243 0.1171
vn 0.9028 0.4045 0.1462
vn 0.9066 -0.2662 0.3275
vn 0.8979 -0.4243 0.1171
vn 0.9066 -0.2663 0.3275
vn 0.9028 -0.4045 -0.1462
vn 0.9028 -0.4045 0.1462
vn 0.9066 -0.2662 -0.3275
vn 0.8979 -0.4243 -0.1171
vn 0.9066 0.2662 -0.3275
vn 0.8979 0.4243 -0.1171
vn 0.9066 0.2663 -0.3275
vn 0.9028 0.4045 -0.1462
vn -0.4889 0.5883 0.6442
vn -0.4889 -0.5883 -0.6442
vn 0.4728 0.5960 0.6490
vn 0.4728 -0.5960 -0.6490
vn 0.7809 0.4104 0.4710
vn 0.9066 0.2663 0.3275
vn 0.9066 -0.2663 -0.3275
usemtl mia_material_x1SG
s off
f 2/1/1 4/2/1 1/3/1
f 6/4/2 8/5/2 5/6/2
f 10/7/3 12/8/3 9/9/3
f 14/10/4 16/11/4 13/12/4
f 23/13/5 24/14/5 18/15/5
f 31/16/6 32/17/6 26/18/6
f 15/19/7 1/3/7 16/11/7
f 10/7/8 4/2/8 3/20/8
f 6/4/9 14/21/9 13/22/9
f 7/23/10 11/24/10 8/5/10
f 4/2/11 33/25/11 1/3/11
f 6/4/12 38/26/12 7/23/12
f 67/27/13 18/15/13 65/28/13
f 71/29/14 22/30/14 70/31/14
f 5/6/15 25/32/15 14/21/15
f 8/5/16 26/18/16 5/6/16
f 8/5/17 28/33/17 27/34/17
f 10/35/18 28/33/18 11/24/18
f 3/36/19 29/37/19 10/35/19
f 2/38/20 30/39/20 3/36/20
f 2/38/21 32/17/21 31/16/21
f 14/21/22 32/17/22 15/40/22
f 2/1/1 3/20/1 4/2/1
f 6/4/2 7/23/2 8/5/2
f 10/7/3 11/41/3 12/8/3
f 14/10/4 15/19/4 16/11/4
f 24/14/5 17/42/5 18/15/5
f 18/15/5 19/43/5 22/30/5
f 19/43/5 20/44/5 22/30/5
f 20/44/5 21/45/5 22/30/5
f 22/30/5 23/13/5 18/15/5
f 32/17/6 25/32/6 26/18/6
f 26/18/6 27/34/6 30/39/6
f 27/34/6 28/33/6 30/39/6
f 28/33/6 29/37/6 30/39/6
f 30/39/6 31/16/6 26/18/6
f 15/19/7 2/1/7 1/3/7
f 10/7/8 9/9/8 4/2/8
f 6/4/9 5/6/9 14/21/9
f 7/23/10 12/46/10 11/24/10
f 4/2/11 35/47/11 33/25/11
f 6/4/12 39/48/12 38/26/12
f 67/27/13 19/43/13 18/15/13
f 71/29/14 23/13/14 22/30/14
f 5/6/15 26/18/15 25/32/15
f 8/5/16 27/34/16 26/18/16
f 8/5/17 11/24/17 28/33/17
f 10/35/18 29/37/18 28/33/18
f 3/36/19 30/39/19 29/37/19
f 2/38/20 31/16/20 30/39/20
f 2/38/21 15/40/21 32/17/21
f 14/21/22 25/32/22 32/17/22
s 1
f 1/3/23 34/49/24 16/50/25
f 4/2/26 36/51/27 35/47/26
f 12/46/28 36/51/27 9/52/29
f 7/23/30 37/53/31 12/46/28
f 6/4/32 40/54/33 39/48/32
f 16/50/25 40/54/33 13/22/34
f 34/49/35 41/55/36 42/56/37
f 35/47/38 41/55/39 33/25/38
f 36/51/40 43/57/41 35/47/42
f 37/53/43 44/58/44 36/51/40
f 37/53/43 46/59/45 45/60/46
f 39/48/47 46/59/48 38/26/47
f 40/54/49 47/61/50 39/48/51
f 34/49/35 48/62/52 40/54/49
f 41/55/53 50/63/54 42/56/55
f 43/57/39 49/64/56 41/55/39
f 44/58/57 51/65/58 43/57/59
f 45/60/60 52/66/61 44/58/57
f 46/59/62 53/67/63 45/60/60
f 47/61/48 54/68/64 46/59/48
f 48/62/65 55/69/66 47/61/67
f 42/56/55 56/70/68 48/62/65
f 50/63/54 57/71/69 58/72/70
f 51/65/71 57/71/72 49/64/56
f 52/66/61 59/73/73 51/65/58
f 53/67/63 60/74/74 52/66/61
f 53/67/63 62/75/75 61/76/76
f 55/69/77 62/75/78 54/68/64
f 56/70/68 63/77/79 55/69/66
f 50/63/54 64/78/80 56/70/68
f 57/71/81 66/79/82 58/72/83
f 59/73/84 65/28/85 57/71/72
f 59/73/86 68/80/87 67/27/86
f 61/76/88 68/80/87 60/74/89
f 62/75/90 69/81/91 61/76/88
f 63/77/92 70/31/93 62/75/78
f 63/77/94 72/82/95 71/29/96
f 58/72/83 72/82/95 64/78/97
f 65/28/98 17/42/99 66/79/100
f 67/27/101 20/44/102 19/43/103
f 69/81/104 20/44/102 68/80/105
f 70/31/106 21/45/107 69/81/104
f 71/29/108 24/14/109 23/13/110
f 66/79/100 24/14/109 72/82/111
f 1/3/23 33/25/23 34/49/24
f 4/2/26 9/52/29 36/51/27
f 12/46/28 37/53/31 36/51/27
f 7/23/30 38/26/30 37/53/31
f 6/4/32 13/22/34 40/54/33
f 16/50/25 34/49/24 40/54/33
f 34/49/35 33/25/112 41/55/36
f 35/47/38 43/57/39 41/55/39
f 36/51/40 44/58/44 43/57/41
f 37/53/43 45/60/46 44/58/44
f 37/53/43 38/26/113 46/59/45
f 39/48/47 47/61/48 46/59/48
f 40/54/49 48/62/52 47/61/50
f 34/49/35 42/56/37 48/62/52
f 41/55/53 49/64/114 50/63/54
f 43/57/39 51/65/71 49/64/56
f 44/58/57 52/66/61 51/65/58
f 45/60/60 53/67/63 52/66/61
f 46/59/62 54/68/115 53/67/63
f 47/61/48 55/69/77 54/68/64
f 48/62/65 56/70/68 55/69/66
f 42/56/55 50/63/54 56/70/68
f 50/63/54 49/64/114 57/71/69
f 51/65/71 59/73/84 57/71/72
f 52/66/61 60/74/74 59/73/73
f 53/67/63 61/76/76 60/74/74
f 53/67/63 54/68/115 62/75/75
f 55/69/77 63/77/92 62/75/78
f 56/70/68 64/78/80 63/77/79
f 50/63/54 58/72/70 64/78/80
f 57/71/81 65/28/116 66/79/82
f 59/73/84 67/27/85 65/28/85
f 59/73/86 60/74/89 68/80/87
f 61/76/88 69/81/91 68/80/87
f 62/75/90 70/31/90 69/81/91
f 63/77/92 71/29/93 70/31/93
f 63/77/94 64/78/97 72/82/95
f 58/72/83 66/79/82 72/82/95
f 65/28/98 18/15/117 17/42/99
f 67/27/101 68/80/105 20/44/102
f 69/81/104 21/45/107 20/44/102
f 70/31/106 22/30/118 21/45/107
f 71/29/108 72/82/111 24/14/109
f 66/79/100 17/42/99 24/14/109
