# 3ds Max Wavefront OBJ Exporter v0.99 - (c)2007 guruware
# File Created: 29.03.2022 00:11:52

mtllib Carrot1.mtl

#
# object CARROT
#

v  0.0115 -0.0034 0.1810
v  -0.0011 0.1653 0.1914
v  -0.0983 0.1533 0.1910
v  -0.0693 -0.0135 0.1805
v  0.0696 0.0005 0.1237
v  0.0686 0.1701 0.1226
v  0.0707 -0.0039 0.0421
v  0.0698 0.1647 0.0245
v  0.0142 -0.0142 -0.0159
v  0.0019 0.1524 -0.0452
v  -0.0669 -0.0243 -0.0165
v  -0.0957 0.1402 -0.0457
v  -0.1250 -0.0283 0.0408
v  -0.1653 0.1355 0.0231
v  -0.1258 -0.0237 0.1225
v  -0.1665 0.1409 0.1212
v  -0.0192 0.2068 0.1573
v  -0.0550 0.2023 0.1569
v  -0.0905 0.1979 0.1566
v  0.0319 0.2103 0.1067
v  0.0064 0.2085 0.1318
v  0.0328 0.2063 0.0348
v  0.0322 0.2083 0.0708
v  -0.0172 0.1972 -0.0163
v  0.0080 0.2018 0.0093
v  -0.0883 0.1884 -0.0165
v  -0.0528 0.1928 -0.0163
v  -0.1395 0.1849 0.0341
v  -0.1138 0.1867 0.0086
v  -0.1403 0.1889 0.1059
v  -0.1400 0.1869 0.0698
v  -0.1154 0.1934 0.1311
v  -0.0054 0.2064 0.1198
v  -0.0532 0.2015 0.1393
v  0.0154 0.2062 0.0707
v  -0.0041 0.2010 0.0213
v  -0.0530 0.1937 0.0006
v  -0.1022 0.1888 0.0206
v  -0.1232 0.1890 0.0699
v  -0.1034 0.1942 0.1194
v  -0.0537 0.1990 0.0954
v  -0.0363 0.2008 0.0885
v  -0.0285 0.2007 0.0704
v  -0.0357 0.1988 0.0525
v  -0.0536 0.1962 0.0448
v  -0.0715 0.1944 0.0521
v  -0.0793 0.1944 0.0702
v  -0.0718 0.1964 0.0882
v  0.0547 0.3900 0.1954
v  -0.0730 0.3768 0.2411
v  0.1077 0.3891 0.0631
v  0.0619 0.3758 -0.0727
v  -0.1006 0.3513 -0.1484
v  -0.2175 0.3404 -0.0860
v  -0.2598 0.3434 0.0599
v  -0.2018 0.3577 0.1860
v  -0.0739 0.3715 0.1507
v  -0.0089 0.3784 0.1302
v  0.0166 0.3778 0.0626
v  -0.0032 0.3713 -0.0085
v  -0.0733 0.3613 -0.0315
v  -0.1539 0.3519 -0.0208
v  -0.1687 0.3547 0.0604
v  -0.1367 0.3621 0.1218
v  -0.0666 0.5272 0.1061
v  -0.1095 0.4581 0.2725
v  -0.0051 0.5842 0.1111
v  0.0215 0.4216 0.2010
v  0.0888 0.4206 0.0350
v  0.0061 0.5837 0.0773
v  0.0598 0.4580 -0.1222
v  -0.0305 0.5261 0.0276
v  -0.1725 0.4347 -0.0259
v  -0.1099 0.5023 -0.2185
v  -0.2001 0.4883 -0.0210
v  -0.3060 0.5306 -0.1771
v  -0.5074 0.5142 -0.0261
v  -0.1876 0.3861 0.0323
v  -0.2294 0.5124 0.2220
v  -0.1388 0.4444 0.0723
v  -0.1145 1.3926 0.1272
v  -0.2530 1.1367 0.1642
v  0.1556 1.0160 0.1032
v  0.0801 1.0208 0.3753
v  0.1852 1.4680 -0.0311
v  -0.0997 1.4370 0.0291
v  0.0155 0.9796 -0.2178
v  0.1149 1.0005 -0.0765
v  -0.2590 0.6703 -0.1362
v  -0.2587 0.8044 -0.4163
v  -0.2580 0.9550 -0.0474
v  -0.3689 0.9285 -0.2953
v  -0.6003 0.7566 -0.0300
v  -0.4483 0.7788 0.0465
v  -0.4774 1.0936 0.1025
v  -0.5112 1.0795 -0.0675
# 96 vertices

vn 0.3811 -0.0294 0.9240
vn -0.3722 -0.1230 0.9200
vn 0.9204 0.0074 0.3911
vn 0.9296 -0.0342 -0.3669
vn 0.4036 -0.1299 -0.9057
vn -0.3498 -0.2235 -0.9098
vn -0.8890 -0.2603 -0.3768
vn -0.8983 -0.2186 0.3812
vn 0.1229 -0.9908 0.0559
vn -0.0807 0.6146 0.7847
vn 0.4965 0.6727 0.5487
vn 0.7415 0.6705 -0.0277
vn 0.5107 0.6091 -0.6068
vn -0.0606 0.5247 -0.8492
vn -0.6377 0.4665 -0.6129
vn -0.8825 0.4688 -0.0366
vn -0.6518 0.5302 0.5423
vn -0.1229 0.9908 -0.0559
vn -0.3911 0.0035 0.9203
vn 0.9926 0.1205 -0.0151
vn 0.7094 0.0561 -0.7026
vn -0.0113 0.0475 0.9989
vn 0.6938 0.1198 0.7102
vn -0.9698 -0.0729 0.2327
vn -0.9926 -0.1213 -0.0055
vn -0.7106 -0.0466 0.7021
vn 0.0121 -0.0537 -0.9985
vn -0.6928 -0.1277 -0.7097
vn 0.9725 0.1314 0.1923
vn 0.8954 0.0864 -0.4368
vn 0.3072 0.0915 0.9472
vn 0.8200 0.1331 0.5566
vn -0.8619 -0.4716 -0.1864
vn -0.7942 -0.1635 0.5852
vn -0.0235 -0.5147 -0.8570
vn -0.8200 -0.1331 -0.5566
vn 0.6366 0.1219 0.7615
vn 0.9761 -0.2139 0.0384
vn 0.2876 0.0589 0.9559
vn 0.9949 -0.1011 -0.0002
vn -0.7806 -0.5307 -0.3301
vn -0.8811 -0.0446 0.4708
vn 0.3084 0.1862 -0.9328
vn -0.8868 -0.4605 -0.0383
# 44 vertex normals

vt 0.8520 0.3515 -0.2435
vt 0.9485 0.3505 -0.2435
vt 0.9483 0.4018 -0.2435
vt 0.8519 0.4015 0.2435
vt 0.8514 0.3014 -0.2435
vt 0.9483 0.2996 -0.2435
vt 0.8502 0.2507 -0.2435
vt 0.9491 0.2473 -0.2435
vt 0.8493 0.1996 0.2435
vt 0.9481 0.1966 -0.2435
vt 0.8492 0.1484 -0.2435
vt 0.9475 0.1465 -0.2435
vt 0.8503 0.0982 -0.2435
vt 0.9477 0.0953 -0.2435
vt 0.8492 0.0511 -0.2435
vt 0.9480 0.0491 -0.2435
vt 0.9486 0.4492 -0.2435
vt 0.8519 0.4511 -0.2435
vt 0.9681 0.7394 -0.0765
vt 0.9501 0.7829 -0.0765
vt 0.9066 0.8010 0.0765
vt 0.9066 0.6779 0.0765
vt 0.8630 0.7829 -0.0765
vt 0.8450 0.7394 -0.0765
vt 0.8630 0.6959 -0.0765
vt 0.9501 0.6959 -0.0765
vt 0.9851 0.3496 -0.2435
vt 0.9851 0.3743 -0.2435
vt 0.9841 0.3986 -0.2435
vt 0.9846 0.2986 -0.2435
vt 0.9846 0.3239 -0.2435
vt 0.9833 0.2470 -0.2435
vt 0.9840 0.2725 -0.2435
vt 0.9822 0.1965 -0.2435
vt 0.9826 0.2214 -0.2435
vt 0.9820 0.1469 -0.2435
vt 0.9817 0.1709 -0.2435
vt 0.9821 0.0965 -0.2435
vt 0.9820 0.1219 -0.2435
vt 0.9826 0.0490 -0.2435
vt 0.9822 0.0725 -0.2435
vt 0.9836 0.4202 -0.2435
vt 0.9832 0.4502 -0.2435
vt 0.8151 0.1983 0.0000
vt 0.8077 0.2056 0.0000
vt 0.7787 0.1858 0.0000
vt 0.7996 0.1842 0.0000
vt 0.8077 0.2047 0.0000
vt 0.7819 0.1948 0.0000
vt 0.7812 0.1937 0.0000
vt 0.8101 0.2067 0.0000
vt 0.7799 0.1914 0.0000
vt 0.8295 0.2345 0.0000
vt 0.8070 0.2044 0.0000
vt 0.8300 0.2134 0.0000
vt 0.8197 0.2342 0.0000
vt 0.8198 0.2339 0.0000
vt 0.8145 0.2707 0.0000
vt 0.8192 0.2342 0.0000
vt 0.8297 0.2558 0.0000
vt 0.8094 0.2656 0.0000
vt 0.8103 0.2668 0.0000
vt 0.8094 0.2651 0.0000
vt 0.7797 0.2881 0.0000
vt 0.8086 0.2655 0.0000
vt 0.8008 0.2868 0.0000
vt 0.7795 0.2808 0.0000
vt 0.7795 0.2823 0.0000
vt 0.7797 0.2802 0.0000
vt 0.7423 0.2770 0.0000
vt 0.7794 0.2803 0.0000
vt 0.7586 0.2905 0.0000
vt 0.7488 0.2695 0.0000
vt 0.7486 0.2694 0.0000
vt 0.7490 0.2693 0.0000
vt 0.7310 0.2407 0.0000
vt 0.7490 0.2689 0.0000
vt 0.7287 0.2613 0.0000
vt 0.7423 0.2480 0.0000
vt 0.7407 0.2442 0.0000
vt 0.7404 0.2507 0.0000
vt 0.7443 0.2044 0.0000
vt 0.7407 0.2419 0.0000
vt 0.7299 0.2197 0.0000
vt 0.7494 0.2097 0.0000
vt 0.7484 0.2082 0.0000
vt 0.7495 0.2106 0.0000
vt 0.7498 0.2091 0.0000
vt 0.7576 0.1878 0.0000
vt 0.7797 0.1937 0.0000
vt 0.7811 0.2218 0.0000
vt 0.7917 0.2265 0.0000
vt 0.7911 0.2282 0.0000
vt 0.7936 0.2334 0.0000
vt 0.7920 0.2298 0.0000
vt 0.7924 0.2379 0.0000
vt 0.7892 0.2474 0.0000
vt 0.7926 0.2383 0.0000
vt 0.7881 0.2480 0.0000
vt 0.7773 0.2529 0.0000
vt 0.7882 0.2482 0.0000
vt 0.7766 0.2525 0.0000
vt 0.7671 0.2492 0.0000
vt 0.7761 0.2520 0.0000
vt 0.7664 0.2470 0.0000
vt 0.7640 0.2420 0.0000
vt 0.7660 0.2453 0.0000
vt 0.7670 0.2378 0.0000
vt 0.7699 0.2281 0.0000
vt 0.7665 0.2375 0.0000
vt 0.7703 0.2267 0.0000
vt 0.7810 0.2210 0.0000
vt 0.7702 0.2274 0.0000
vt 0.7810 0.2206 0.0000
vt 0.7650 0.2388 0.0000
vt 0.7919 0.2273 0.0000
vt 0.7933 0.2365 0.0000
vt 0.7665 0.2470 0.0000
vt 0.4773 0.2411 0.0697
vt 0.4053 0.3367 -0.7749
vt 0.1225 0.2357 -0.0588
vt 0.2341 0.2719 0.0588
vt 0.4832 0.0214 -0.0588
vt 0.3651 0.0200 0.0588
vt 0.1621 0.0215 -0.0588
vt 0.0416 0.0200 0.0588
vt 0.8690 0.4837 0.1533
vt 0.7794 0.5753 -0.8579
vt 0.5039 0.6361 0.0905
vt 0.5825 0.5375 -1.0063
vt 0.2033 0.0209 -0.0588
vt 0.3223 0.0200 0.0588
vt 0.5269 0.0200 -0.0588
vt 0.6434 0.0220 0.0588
vt 0.0837 0.9489 -0.2678
vt 0.0587 0.9522 -2.2742
vt 0.0831 0.8499 -2.2742
vt 0.1349 0.8431 -2.2742
vt 0.5029 0.2421 -0.7749
vt 0.4582 0.3387 -0.7749
vt 0.5029 0.2421 0.0697
vt 0.6578 0.0691 -2.4020
vt 0.7512 0.0200 -2.4020
vt 0.7541 0.0454 -0.3293
vt 0.6637 0.1218 -2.4020
vt 0.2548 0.2305 -0.0588
vt 0.1494 0.2303 0.0588
vt 0.2216 0.9095 -1.2444
vt 0.1323 0.9689 -1.2444
vt 0.1278 0.9437 0.1121
vt 0.2123 0.8574 -1.2444
vt 0.1448 0.2627 -0.0588
vt 0.1440 0.3697 0.0588
vt 0.8487 0.5808 -0.8579
vt 0.8946 0.4857 -0.8579
vt 0.8946 0.4857 0.1533
vt 0.5298 0.5378 -1.0063
vt 0.4783 0.6361 -1.0063
vt 0.4783 0.6361 0.0905
vt 0.7236 0.4186 -0.9482
vt 0.7928 0.3381 -0.9482
vt 0.8045 0.3609 0.1887
vt 0.7478 0.4657 -0.9482
vt 0.1440 0.4136 -0.0588
vt 0.1447 0.5196 0.0588
vt 0.2366 0.6479 -1.6257
vt 0.2347 0.7524 -1.6257
vt 0.2108 0.7432 -0.0002
vt 0.1872 0.6290 -1.6257
vt 0.1888 0.3004 -0.0588
vt 0.1872 0.4047 0.0588
vt 0.4596 0.9800 -0.0588
vt 0.3597 0.9475 0.0588
vt 0.0509 0.7620 -2.2742
vt 0.1536 0.7919 -2.2742
vt 0.4638 0.4577 -0.7749
vt 0.4129 0.3621 -0.7749
vt 0.6378 0.1160 -2.4020
vt 0.5387 0.0722 -2.4020
vt 0.2588 0.8273 -1.2444
vt 0.3140 0.9205 -1.2444
vt 0.8618 0.6509 -0.8579
vt 0.7390 0.6626 -0.8579
vt 0.5347 0.4553 -1.0063
vt 0.6406 0.4186 -1.0063
vt 0.6957 0.6384 -0.9482
vt 0.7045 0.4370 -0.9482
vt 0.1994 0.5368 -1.6257
vt 0.2781 0.6112 -1.6257
vt 0.0200 0.2627 2.2742
vt 0.1346 0.3871 -2.2742
vt 0.4568 0.7236 0.7749
vt 0.2950 0.7042 -0.7749
vt 0.0432 0.2441 -2.4020
vt 0.0416 0.0751 2.4020
vt 0.5540 0.7426 -1.2444
vt 0.5937 0.8348 1.2444
vt 0.7915 0.7927 -0.8579
vt 0.6239 0.8563 0.8579
vt 0.5340 0.1828 -1.0063
vt 0.6908 0.1818 1.0063
vt 0.5804 0.7343 0.9482
vt 0.5323 0.6478 -0.9482
vt 0.3384 0.1926 1.6257
vt 0.4375 0.2091 -1.6257
# 205 texture coords

o CARROT
g CARROT
usemtl carrot_wire_027177027
s 8
f 1/1/1 2/2/1 3/3/2 
f 3/3/2 4/4/2 1/1/1 
f 5/5/3 6/6/3 2/2/1 
f 2/2/1 1/1/1 5/5/3 
f 7/7/4 8/8/4 6/6/3 
f 6/6/3 5/5/3 7/7/4 
f 9/9/5 10/10/5 8/8/4 
f 8/8/4 7/7/4 9/9/5 
f 11/11/6 12/12/6 10/10/5 
f 10/10/5 9/9/5 11/11/6 
f 13/13/7 14/14/7 12/12/6 
f 12/12/6 11/11/6 13/13/7 
f 15/15/8 16/16/8 14/14/7 
f 14/14/7 13/13/7 15/15/8 
f 4/4/2 3/3/2 16/17/8 
f 16/17/8 15/18/8 4/4/2 
s 1
f 13/19/9 11/20/9 9/21/9 
f 9/21/9 4/22/9 13/19/9 
f 9/21/9 7/23/9 5/24/9 
f 5/24/9 4/22/9 9/21/9 
f 5/24/9 1/25/9 4/22/9 
f 15/26/9 13/19/9 4/22/9 
s off
f 2/2/10 17/27/10 18/28/10 
f 18/28/10 3/3/10 2/2/10 
f 3/3/10 18/28/10 19/29/10 
f 6/6/11 20/30/11 21/31/11 
f 21/31/11 2/2/11 6/6/11 
f 2/2/11 21/31/11 17/27/11 
f 8/8/12 22/32/12 23/33/12 
f 23/33/12 6/6/12 8/8/12 
f 6/6/12 23/33/12 20/30/12 
f 10/10/13 24/34/13 25/35/13 
f 25/35/13 8/8/13 10/10/13 
f 8/8/13 25/35/13 22/32/13 
f 12/12/14 26/36/14 27/37/14 
f 27/37/14 10/10/14 12/12/14 
f 10/10/14 27/37/14 24/34/14 
f 14/14/15 28/38/15 29/39/15 
f 29/39/15 12/12/15 14/14/15 
f 12/12/15 29/39/15 26/36/15 
f 16/16/16 30/40/16 31/41/16 
f 31/41/16 14/14/16 16/16/16 
f 14/14/16 31/41/16 28/38/16 
f 3/3/17 19/29/17 32/42/17 
f 32/42/17 16/17/17 3/3/17 
f 16/17/17 32/42/17 30/43/17 
s 1
f 21/44/18 33/45/18 18/46/18 
f 18/46/18 17/47/18 21/44/18 
f 21/44/18 33/48/19 33/45/18 
f 34/49/18 34/50/18 33/45/18 
f 33/45/18 33/51/18 34/49/18 
f 34/50/18 34/52/19 18/46/18 
f 18/46/18 33/45/18 34/50/18 
f 23/53/18 33/54/18 21/44/18 
f 21/44/18 20/55/18 23/53/18 
f 35/56/18 33/54/18 23/53/18 
f 23/53/18 35/56/19 35/56/18 
f 35/56/18 35/57/18 33/54/18 
f 21/44/18 33/54/18 33/48/19 
f 25/58/18 35/59/18 23/53/18 
f 23/53/18 22/60/18 25/58/18 
f 36/61/18 35/59/18 25/58/18 
f 25/58/18 36/62/19 36/61/18 
f 36/61/18 36/63/18 35/59/18 
f 23/53/18 35/59/18 35/56/19 
f 27/64/18 36/65/18 25/58/18 
f 25/58/18 24/66/18 27/64/18 
f 37/67/18 36/65/18 27/64/18 
f 27/64/18 37/68/19 37/67/18 
f 37/67/18 37/69/18 36/65/18 
f 25/58/18 36/65/18 36/62/19 
f 29/70/18 37/71/18 27/64/18 
f 27/64/18 26/72/18 29/70/18 
f 38/73/18 37/71/18 29/70/18 
f 29/70/18 38/74/19 38/73/18 
f 38/73/18 38/75/18 37/71/18 
f 27/64/18 37/71/18 37/68/19 
f 31/76/18 38/77/18 29/70/18 
f 29/70/18 28/78/18 31/76/18 
f 39/79/18 38/77/18 31/76/18 
f 31/76/18 39/80/19 39/79/18 
f 39/79/18 39/81/18 38/77/18 
f 29/70/18 38/77/18 38/74/19 
f 32/82/18 39/83/18 31/76/18 
f 31/76/18 30/84/18 32/82/18 
f 40/85/18 39/83/18 32/82/18 
f 32/82/18 40/86/19 40/85/18 
f 40/85/18 40/87/18 39/83/18 
f 31/76/18 39/83/18 39/80/19 
f 18/46/18 40/88/18 32/82/18 
f 32/82/18 19/89/18 18/46/18 
f 34/90/18 40/88/18 18/46/18 
f 18/46/18 34/52/19 34/90/18 
f 32/82/18 40/88/18 40/86/19 
f 41/91/18 34/49/18 33/51/18 
f 33/51/18 42/92/18 41/91/18 
f 42/93/18 33/54/18 43/94/18 
f 43/94/18 42/95/19 42/93/18 
f 43/94/18 33/54/18 35/57/18 
f 43/96/18 35/59/18 44/97/18 
f 44/97/18 43/98/19 43/96/18 
f 44/97/18 35/59/18 36/63/18 
f 44/99/18 36/65/18 45/100/18 
f 45/100/18 44/101/19 44/99/18 
f 45/100/18 36/65/18 37/69/18 
f 45/102/18 37/71/18 46/103/18 
f 46/103/18 45/104/19 45/102/18 
f 46/103/18 37/71/18 38/75/18 
f 46/105/18 38/77/18 47/106/18 
f 47/106/18 46/107/19 46/105/18 
f 47/106/18 38/77/18 39/81/18 
f 47/108/18 39/83/18 48/109/18 
f 48/109/18 47/110/19 47/108/18 
f 48/109/18 39/83/18 40/87/18 
f 48/111/18 40/88/18 41/112/18 
f 41/112/18 48/113/19 48/111/18 
f 34/90/18 41/114/19 41/112/18 
f 41/112/18 40/88/18 34/90/18 
s 2
f 42/95/18 46/107/18 47/115/18 
f 47/115/18 42/116/19 42/95/18 
f 43/117/18 46/107/18 42/95/18 
f 42/95/18 43/94/19 43/117/18 
f 43/117/18 46/118/19 46/107/18 
f 47/115/18 46/107/18 47/106/19 
s off
f 47/110/18 41/91/18 42/116/18 
f 42/116/18 47/115/18 47/110/18 
f 48/113/18 41/91/18 47/110/18 
f 47/110/18 48/109/18 48/113/18 
f 48/113/18 41/112/18 41/91/18 
f 42/116/18 41/91/18 42/92/18 
f 46/118/18 44/101/18 45/104/18 
f 45/104/18 46/103/18 46/118/18 
f 43/98/18 44/101/18 46/118/18 
f 46/118/18 43/117/18 43/98/18 
f 43/98/18 44/97/18 44/101/18 
f 45/104/18 44/101/18 45/100/18 
f 33/119/19 49/120/19 33/119/19 
f 34/121/19 50/122/19 34/121/19 
f 35/123/19 51/124/19 35/123/19 
f 36/125/19 52/126/19 36/125/19 
f 37/127/19 53/128/19 37/127/19 
f 38/129/19 54/130/19 38/129/19 
f 39/131/19 55/132/19 39/131/19 
f 40/133/19 56/134/19 40/133/19 
f 34/135/20 41/136/20 57/137/20 
f 57/137/20 50/138/20 34/135/20 
f 33/119/21 42/139/21 58/140/21 
f 58/140/21 49/120/21 33/119/21 
f 42/141/19 58/140/19 42/141/19 
f 59/142/22 43/143/22 35/144/22 
f 35/144/22 51/145/22 59/142/22 
f 43/146/19 59/147/19 43/146/19 
f 60/148/23 44/149/23 36/150/23 
f 36/150/23 52/151/23 60/148/23 
f 44/152/19 60/153/19 44/152/19 
f 61/154/24 53/128/24 37/127/24 
f 37/127/25 45/155/25 61/154/25 
f 45/156/19 61/154/19 45/156/19 
f 62/157/26 54/130/26 38/129/26 
f 38/129/26 46/158/26 62/157/26 
f 46/159/19 62/157/19 46/159/19 
f 63/160/27 47/161/27 39/162/27 
f 39/162/27 55/163/27 63/160/27 
f 47/164/19 63/165/19 47/164/19 
f 64/166/28 48/167/28 40/168/28 
f 40/168/28 56/169/28 64/166/28 
f 48/170/19 64/171/19 48/170/19 
f 41/172/19 57/173/19 41/172/19 
f 42/141/19 58/140/19 42/141/19 
f 43/146/19 59/147/19 43/146/19 
f 46/159/19 62/157/19 46/159/19 
f 47/164/19 63/165/19 47/164/19 
f 47/164/19 63/165/19 47/164/19 
f 48/170/19 64/171/19 48/170/19 
f 41/172/19 57/173/19 41/172/19 
f 42/139/19 58/140/19 42/141/19 
f 46/158/19 62/157/19 46/159/19 
f 43/146/19 59/147/19 43/146/19 
f 44/152/19 60/153/19 44/152/19 
f 45/155/19 61/154/19 45/156/19 
f 57/137/29 65/174/29 66/175/29 
f 66/175/29 50/138/29 57/137/29 
f 58/140/30 67/176/30 68/177/30 
f 68/177/30 49/120/30 58/140/30 
f 59/142/31 51/145/31 69/178/31 
f 69/178/31 70/179/31 59/142/31 
f 60/148/32 52/151/32 71/180/32 
f 71/180/32 72/181/32 60/148/32 
f 73/182/33 74/183/33 53/128/33 
f 53/128/33 61/154/33 73/182/33 
f 75/184/34 76/185/34 54/130/34 
f 54/130/34 62/157/34 75/184/34 
f 55/163/35 77/186/35 78/187/35 
f 78/187/35 63/160/35 55/163/35 
f 56/169/36 79/188/36 80/189/36 
f 80/189/36 64/166/36 56/169/36 
f 65/174/37 81/190/37 82/191/37 
f 82/191/37 66/175/37 65/174/37 
f 67/176/38 83/192/38 84/193/38 
f 84/193/38 68/177/38 67/176/38 
f 70/179/39 69/178/39 85/194/39 
f 85/194/39 86/195/39 70/179/39 
f 72/181/40 71/180/40 87/196/40 
f 87/196/40 88/197/40 72/181/40 
f 89/198/41 90/199/41 74/183/41 
f 74/183/41 73/182/41 89/198/41 
f 91/200/42 92/201/42 76/185/42 
f 76/185/42 75/184/42 91/200/42 
f 77/186/43 93/202/43 94/203/43 
f 94/203/43 78/187/43 77/186/43 
f 79/188/44 95/204/44 96/205/44 
f 96/205/44 80/189/44 79/188/44 
# 212 faces

